<?xml version="1.0" encoding="UTF-8" standalone="no"?>
<svg
   viewBox="0 0 1792 1792"
   version="1.1"
   id="svg4"
   sodipodi:docname="readon.svg"
   inkscape:version="1.2.2 (b0a8486541, 2022-12-01)"
   xmlns:inkscape="http://www.inkscape.org/namespaces/inkscape"
   xmlns:sodipodi="http://sodipodi.sourceforge.net/DTD/sodipodi-0.dtd"
   xmlns="http://www.w3.org/2000/svg"
   xmlns:svg="http://www.w3.org/2000/svg">
  <defs
     id="defs8" />
  <sodipodi:namedview
     id="namedview6"
     pagecolor="#ffffff"
     bordercolor="#666666"
     borderopacity="1.0"
     inkscape:showpageshadow="2"
     inkscape:pageopacity="0.0"
     inkscape:pagecheckerboard="0"
     inkscape:deskcolor="#d1d1d1"
     showgrid="false"
     showguides="true"
     inkscape:zoom="0.40524479"
     inkscape:cx="85.133728"
     inkscape:cy="1051.2165"
     inkscape:window-width="2510"
     inkscape:window-height="1371"
     inkscape:window-x="50"
     inkscape:window-y="32"
     inkscape:window-maximized="1"
     inkscape:current-layer="svg4">
    <sodipodi:guide
       position="809.62804,867.20935"
       orientation="0,-1"
       id="guide1583"
       inkscape:locked="false" />
    <sodipodi:guide
       position="896.87244,1418.594"
       orientation="1,0"
       id="guide1585"
       inkscape:locked="false" />
    <sodipodi:guide
       position="-1086.8466,894.14798"
       orientation="0,-1"
       id="guide1453"
       inkscape:locked="false" />
    <sodipodi:guide
       position="898.22253,1128.2037"
       orientation="1,0"
       id="guide1455"
       inkscape:locked="false" />
  </sodipodi:namedview>
  <path
     d="m 1600.8513,845.48997 -0.5416,102.42015 c -0.072,13.70564 -3.3879,29.73694 -22.0546,39.3309 -18.6667,9.59396 -47.7322,8.80894 -74.3989,8.80894 H 287.85622 c -26.66667,0 -53.23785,1.25614 -71.90451,-8.33783 -18.66667,-9.59396 -24.09549,-27.29697 -24.09549,-41.00272 v -98.68124 c 0,-13.70572 5.11376,-32.22288 23.78042,-41.81689 18.66667,-9.594 45.55291,-7.52373 72.21958,-7.52373 H 1503.8562 c 26.6667,0 54.8016,-0.95725 73.4683,8.63675 18.6667,9.59401 23.5993,24.46009 23.5268,38.16567 z"
     id="path2"
     style="fill:#d40000;stroke-width:0.716913"
     sodipodi:nodetypes="sssssssssssss" />
  <path
     d="m 1601.591,246.3039 0,271.04938 c 0,34.36185 -5.0281,47.50687 -23.6948,71.56002 -18.6667,24.05321 -45.6385,28.4978 -72.3052,28.4978 H 289.59097 c -26.66667,0 -55.6852,-3.54004 -74.35187,-27.59325 -18.66667,-24.05315 -21.64813,-36.42621 -21.64813,-70.78806 V 246.3039 c 0,-34.36179 0.72574,-123.51094 0.72574,-123.51094 l 138.36597,0.64685 -0.1844,379.64557 1135.64982,-0.59124 -1.511,-379.35021 134.2036,0.51329 c 0,0 0.7503,88.28489 0.7503,122.64668 z"
     id="path1445"
     style="fill:#1a1a1a;stroke-width:1.13515"
     sodipodi:nodetypes="ssssssssccccccs" />
  <path
     d="m 1601.591,1551.4972 v -271.0494 c 0,-34.3618 -5.0281,-47.5069 -23.6948,-71.56 -18.6667,-24.0532 -45.6385,-28.4978 -72.3052,-28.4978 H 289.59097 c -26.66667,0 -55.6852,3.54 -74.35187,27.5932 -18.66667,24.0532 -21.64813,36.4263 -21.64813,70.7881 v 272.7259 c 0,34.3618 0.72574,123.5109 0.72574,123.5109 l 138.36597,-0.6468 -0.1844,-379.6456 1135.64982,0.5913 -1.511,379.3502 134.2036,-0.5133 c 0,0 0.7503,-88.2849 0.7503,-122.6467 z"
     id="path1451"
     style="fill:#1a1a1a;stroke-width:1.13515"
     sodipodi:nodetypes="ssssssssccccccs" />
</svg>
